HIERARCHY
ROOT Hips
{
	OFFSET 0.000000 0.000000 0.000000
	CHANNELS 6 Xposition Yposition Zposition Xrotation Yrotation Zrotation
	JOINT LeftUpLeg
	{
		OFFSET 3.317160 0.000000 0.000000
		CHANNELS 6 Xposition Yposition Zposition Xrotation Yrotation Zrotation
		JOINT LeftLeg
		{
			OFFSET 0.000000 -16.621309 0.000000
			CHANNELS 6 Xposition Yposition Zposition Xrotation Yrotation Zrotation
			JOINT LeftFoot
			{
				OFFSET 0.000000 -16.132090 0.000000
				CHANNELS 6 Xposition Yposition Zposition Xrotation Yrotation Zrotation
				JOINT LeftToeBase
				{
					OFFSET 0.000000 -1.705429 6.364750
					CHANNELS 6 Xposition Yposition Zposition Xrotation Yrotation Zrotation
					End Site
					{
						OFFSET 0.000000 0.000000 2.952750
					}
				}
			}
		}
	}
	JOINT RightUpLeg
	{
		OFFSET -3.317160 0.000000 0.000000
		CHANNELS 6 Xposition Yposition Zposition Xrotation Yrotation Zrotation
		JOINT RightLeg
		{
			OFFSET 0.000000 -16.621309 0.000000
			CHANNELS 6 Xposition Yposition Zposition Xrotation Yrotation Zrotation
			JOINT RightFoot
			{
				OFFSET 0.000000 -16.132090 0.000000
				CHANNELS 6 Xposition Yposition Zposition Xrotation Yrotation Zrotation
				JOINT RightToeBase
				{
					OFFSET 0.000000 -1.705429 6.364750
					CHANNELS 6 Xposition Yposition Zposition Xrotation Yrotation Zrotation
					End Site
					{
						OFFSET 0.000000 0.000000 2.952750
					}
				}
			}
		}
	}
	JOINT Spine
	{
		OFFSET 0.000000 0.039370 0.000000
		CHANNELS 6 Xposition Yposition Zposition Xrotation Yrotation Zrotation
		JOINT Spine1
		{
			OFFSET 0.000000 9.216790 0.000000
			CHANNELS 6 Xposition Yposition Zposition Xrotation Yrotation Zrotation
			JOINT Neck
			{
				OFFSET 0.000000 8.819270 0.000000
				CHANNELS 3 Xrotation Yrotation Zrotation
				JOINT Head
				{
					OFFSET 0.000000 6.846361 0.000000
					CHANNELS 6 Xposition Yposition Zposition Xrotation Yrotation Zrotation
					End Site
					{
						OFFSET 0.000000 4.527550 0.000000
					}
				}
			}
			JOINT LeftShoulder
			{
				OFFSET 0.000000 8.819270 0.000000
				CHANNELS 3 Xrotation Yrotation Zrotation
				JOINT LeftArm
				{
					OFFSET 7.313730 -0.000031 0.000000
					CHANNELS 6 Xposition Yposition Zposition Xrotation Yrotation Zrotation
					JOINT LeftForeArm
					{
						OFFSET 10.822620 -0.000040 0.000000
						CHANNELS 6 Xposition Yposition Zposition Xrotation Yrotation Zrotation
						JOINT LeftHand
						{
							OFFSET 10.147810 -0.000040 0.000000
							CHANNELS 6 Xposition Yposition Zposition Xrotation Yrotation Zrotation
							JOINT LeftHandThumb
							{
								OFFSET 0.000000 0.000000 0.000000
								CHANNELS 6 Xposition Yposition Zposition Xrotation Yrotation Zrotation
								End Site
								{
									OFFSET 0.000000 0.000000 3.937000
								}
							}
							JOINT L_Wrist_End
							{
								OFFSET 3.937000 -0.000010 0.000000
								CHANNELS 6 Xposition Yposition Zposition Xrotation Yrotation Zrotation
								End Site
								{
									OFFSET 0.000000 0.100000 0.000000
								}
							}
						}
					}
				}
			}
			JOINT RightShoulder
			{
				OFFSET 0.000000 8.819270 0.000000
				CHANNELS 3 Xrotation Yrotation Zrotation
				JOINT RightArm
				{
					OFFSET -7.313730 -0.000031 0.000000
					CHANNELS 6 Xposition Yposition Zposition Xrotation Yrotation Zrotation
					JOINT RightForeArm
					{
						OFFSET -10.822620 -0.000040 0.000000
						CHANNELS 6 Xposition Yposition Zposition Xrotation Yrotation Zrotation
						JOINT RightHand
						{
							OFFSET -10.147810 -0.000040 0.000000
							CHANNELS 6 Xposition Yposition Zposition Xrotation Yrotation Zrotation
							JOINT RightHandThumb
							{
								OFFSET 0.000000 0.000000 0.000000
								CHANNELS 6 Xposition Yposition Zposition Xrotation Yrotation Zrotation
								End Site
								{
									OFFSET 0.000000 0.000000 3.937000
								}
							}
							JOINT R_Wrist_End
							{
								OFFSET -5.393688 -0.000019 0.000000
								CHANNELS 6 Xposition Yposition Zposition Xrotation Yrotation Zrotation
								End Site
								{
									OFFSET 0.000000 0.100000 0.000000
								}
							}
						}
					}
				}
			}
		}
	}
}
MOTION
Frames: 4
Frame Time: 0.041667
0.064700 34.357063 0.412605 -3.143848 -0.010703 -3.973313 3.317161 0.000011 -0.000000 -2.434440 -3.769371 9.987267 -0.000000 -16.621292 -0.000002 18.548646 6.113511 0.873766 -0.000001 -16.132048 -0.000084 -11.318090 4.277902 -8.530539 -0.000000 -1.705429 6.364749 0.000000 0.000000 -0.000000 -3.317164 0.000015 0.000000 0.724911 8.850196 5.187210 -0.000003 -16.621309 -0.000001 8.709423 -14.872213 2.374927 -0.000022 -16.132078 -0.000033 -7.030642 -4.122422 -1.449743 0.000003 -1.705438 6.364745 -0.011733 0.017322 -0.003282 -0.000000 0.039369 0.000001 -0.000024 -0.000000 -0.000001 -0.030646 9.220872 -0.006530 3.427510 -1.660471 3.194803 1.236772 -0.508118 1.535376 0.000000 6.846369 0.000005 -0.579198 -0.171899 0.089563 -1.287418 -3.042907 -19.611585 7.313735 -0.000018 -0.000004 -9.245098 16.260307 -61.484605 10.822609 -0.000051 -0.000003 -0.233729 -16.257694 0.005592 10.147812 -0.000040 0.000001 -0.000001 0.000002 -0.000001 0.000000 0.000002 0.000001 -0.000001 0.000003 -0.000000 3.937000 -0.000011 0.000001 -0.000001 0.000003 0.000000 -1.381895 5.039146 19.971109 -7.313732 -0.000016 -0.000001 -1.860989 -14.139555 60.130506 -10.822591 -0.000005 0.000002 -0.292993 19.289088 -0.003539 -10.147812 -0.000037 -0.000001 -0.000000 -0.000002 0.000000 -0.000002 -0.000001 0.000002 0.000003 -0.000000 -0.000000 -5.393692 -0.000014 0.000000 0.000003 -0.000001 0.000001 
0.061186 34.357784 0.417601 -3.143440 -0.010588 -3.973017 3.317154 0.000018 -0.000000 -2.411532 -3.774105 10.005424 -0.000001 -16.621325 0.000000 18.522305 6.114100 0.850592 0.000001 -16.132036 -0.000091 -11.313354 4.272863 -8.525209 0.000001 -1.705429 6.364750 0.000001 0.000000 -0.000000 -3.317152 0.000010 0.000000 0.758727 8.852087 5.194481 -0.000002 -16.621313 -0.000001 8.657249 -14.902776 2.365343 -0.000018 -16.132078 -0.000033 -7.015466 -4.098840 -1.453689 0.000002 -1.705438 6.364745 0.010139 -0.011317 -0.001714 0.000000 0.039378 0.000002 -0.000010 0.000001 -0.000000 -0.030642 9.220885 -0.006526 3.426942 -1.661629 3.187488 1.243600 -0.507989 1.535221 0.000000 6.846376 -0.000000 -0.577908 -0.171981 0.089919 -1.307431 -3.061798 -19.665487 7.313726 -0.000011 -0.000002 -9.260285 16.250523 -61.437265 10.822606 -0.000054 -0.000002 -0.241159 -16.258207 0.002131 10.147818 -0.000040 -0.000001 0.000000 -0.000000 -0.000001 -0.000002 0.000000 -0.000000 -0.000000 0.000001 -0.000001 3.937001 -0.000005 -0.000000 0.000001 0.000003 -0.000001 -1.381879 5.039177 19.971125 -7.313733 -0.000010 -0.000001 -1.876488 -14.124443 60.124632 -10.822589 -0.000012 -0.000001 -0.290230 19.289547 0.001221 -10.147808 -0.000038 0.000001 0.000001 0.000000 -0.000000 -0.000003 0.000000 0.000001 -0.000000 -0.000002 -0.000001 -5.393692 -0.000017 0.000001 -0.000000 -0.000001 -0.000000 
0.057621 34.358799 0.421925 -3.142539 -0.010724 -3.972922 3.317155 0.000005 -0.000000 -2.385731 -3.785912 10.020872 -0.000002 -16.621305 -0.000002 18.489025 6.125468 0.831293 -0.000003 -16.132040 -0.000088 -11.303597 4.266324 -8.523097 0.000000 -1.705429 6.364751 0.000000 -0.000001 -0.000000 -3.317158 0.000000 -0.000000 0.799851 8.854608 5.198338 -0.000001 -16.621305 0.000002 8.587756 -14.921942 2.360130 -0.000022 -16.132084 -0.000043 -6.991257 -4.085408 -1.463559 -0.000001 -1.705432 6.364748 0.025495 -0.028708 0.006952 0.000001 0.039366 -0.000001 -0.000004 0.000000 -0.000001 -0.030643 9.220906 -0.006531 3.425761 -1.662784 3.180499 1.235973 -0.508103 1.535264 -0.000000 6.846350 -0.000007 -0.579500 -0.171890 0.089491 -1.321699 -3.078242 -19.698568 7.313736 0.000000 -0.000000 -9.272533 16.238735 -61.411583 10.822624 -0.000038 -0.000002 -0.251757 -16.257517 -0.000957 10.147811 -0.000039 0.000000 -0.000000 0.000001 -0.000003 -0.000000 0.000002 -0.000001 -0.000000 0.000004 0.000000 3.937001 -0.000008 -0.000000 -0.000000 0.000001 -0.000000 -1.384025 5.040552 19.977745 -7.313729 0.000003 -0.000001 -1.892408 -14.111813 60.112078 -10.822629 -0.000020 -0.000002 -0.286842 19.288994 0.005600 -10.147808 -0.000039 0.000000 -0.000000 0.000000 -0.000000 0.000002 -0.000002 0.000002 0.000000 -0.000003 -0.000001 -5.393688 -0.000016 0.000001 0.000000 -0.000002 -0.000001 
0.053853 34.359901 0.425561 -3.140954 -0.010670 -3.972869 3.317155 0.000024 0.000001 -2.361564 -3.795148 10.030724 0.000001 -16.621302 0.000000 18.453225 6.136865 0.824162 -0.000001 -16.132072 -0.000087 -11.291549 4.260837 -8.526772 -0.000001 -1.705429 6.364750 -0.000000 -0.000000 0.000000 -3.317158 0.000023 0.000002 0.837455 8.856273 5.206634 0.000000 -16.621319 -0.000001 8.519120 -14.939227 2.346941 -0.000018 -16.132084 -0.000041 -6.965982 -4.073684 -1.470140 0.000001 -1.705435 6.364751 0.010279 0.000864 0.001720 0.000000 0.039372 0.000001 -0.000017 0.000000 0.000001 -0.030646 9.220890 -0.006529 3.423805 -1.663927 3.173526 1.240100 -0.507978 1.535079 -0.000000 6.846357 -0.000002 -0.578726 -0.172020 0.089944 -1.291021 -3.077899 -19.578589 7.313728 -0.000013 0.000002 -9.278921 16.234388 -61.543741 10.822608 -0.000045 -0.000005 -0.258579 -16.257858 -0.004185 10.147808 -0.000041 -0.000002 -0.000001 -0.000001 -0.000001 0.000002 0.000002 -0.000001 -0.000000 0.000004 0.000000 3.937000 -0.000006 0.000000 -0.000001 0.000000 0.000000 -1.381882 5.039384 19.971127 -7.313727 -0.000010 -0.000002 -1.907984 -14.097683 60.104142 -10.822610 -0.000018 -0.000002 -0.284204 19.288664 0.010252 -10.147810 -0.000040 0.000001 0.000000 0.000002 0.000000 -0.000001 -0.000003 -0.000000 0.000001 -0.000001 -0.000002 -5.393692 -0.000016 -0.000000 0.000002 -0.000002 0.000001 
